<?xml version="1.0" encoding="UTF-8"?>
<svg width="700pt" height="700pt" version="1.1" viewBox="0 0 700 600" xmlns="http://www.w3.org/2000/svg" xmlns:xlink="http://www.w3.org/1999/xlink">
 <g>
  <path d="m247.05 177.05c6.5625-6.5625 17.199-6.5625 23.758 0l79.195 79.195 79.195-79.195c6.5625-6.5625 17.199-6.5625 23.758 0 6.5625 6.5625 6.5625 17.199 0 23.758l-79.195 79.195 79.195 79.195c6.5625 6.5625 6.5625 17.199 0 23.758-6.5625 6.5625-17.199 6.5586-23.758 0l-79.195-79.195-79.195 79.195c-6.5625 6.5586-17.199 6.5586-23.758 0-6.5625-6.5625-6.5625-17.199 0-23.758l79.195-79.195-79.195-79.195c-6.5625-6.5625-6.5625-17.199 0-23.758z"/>
 </g>
</svg>
