<?xml version="1.0" encoding="UTF-8"?>
<svg width="700pt" height="700pt" version="1.1" viewBox="0 0 700 600" xmlns="http://www.w3.org/2000/svg" xmlns:xlink="http://www.w3.org/1999/xlink">
 <g>
  <path d="m275.18 373.65c21.504 0 41.531 5.1914 58.281 14.113v-81.816l-202.93-202.95 34.156-34.156 404.82 404.8-34.156 34.156-153.55-153.57v106.14c0 47.914-47.73 86.738-106.6 86.738-58.867 0-106.6-38.824-106.6-86.738 0-47.898 47.73-86.738 106.6-86.738zm58.281-193.93v-145.34c0-6.6523 2.7227-12.398 7.8633-16.617 5.1562-4.2344 11.324-5.7617 17.859-4.4531l154.64 30.98c10.148 2.0312 17.27 10.734 17.27 21.066v107.55c0 6.6523-2.7031 12.398-7.8633 16.617-5.1562 4.2344-11.305 5.7617-17.84 4.4531l-123.6-24.762v58.801l-48.316-48.316z" fill-rule="evenodd"/>
 </g>
</svg>
