<?xml version="1.0" encoding="UTF-8"?>
<svg width="700pt" height="700pt" version="1.1" viewBox="0 0 700 600" xmlns="http://www.w3.org/2000/svg">
 <path d="m245.23 208.64c3.832-52.266 46.047-91.973 105.54-91.973 58.871 0 104.23 38.582 104.23 91.406 0 17.406-4.3281 32.797-13.895 47.082-9.3711 13.992-23.289 26.191-41.227 38.152l-0.082031 0.050781c-15.414 10.102-23.562 17.34-28.113 24.094-4.1914 6.2227-6.0703 13.137-6.0703 24.398 0 0.58203-0.046875 1.1602-0.13672 1.7227-0.92187 11.133-10.488 20.277-22.855 20.277-12.742 0-23.074-9.8672-23.074-22.035 0-0.30078 0.003906-0.59766 0.015625-0.89844v-0.77734c-0.10156-14.18 2.2539-26.629 8.5781-38.332l6.8477-10.418c8.4062-10.773 20.211-20.41 35.227-30.531 15.105-10.324 24.477-19.027 30.109-27.176 5.3906-7.7969 7.707-15.578 7.707-24.949 0-28.094-23.539-45.402-58.031-45.402-32.258 0-55.516 15.863-59.02 47.516 0.015625 0.3125 0.019531 0.625 0.019531 0.94141 0 11.91-9.9141 22.035-22.926 22.035-11.84 0-21.586-8.5078-22.918-19.477-0.12109-0.69922-0.17188-1.4102-0.15234-2.1289l-0.003906-0.42969c0-1.0625 0.078125-2.1133 0.23438-3.1484zm68.57 206.43c0-15.879 13.539-28.043 29.59-28.043 16.344 0 29.359 12.434 29.359 28.043 0 15.332-12.73 28.258-29.359 28.258-16.34 0-29.59-12.652-29.59-28.258z" fill-rule="evenodd"/>
</svg>
