<?xml version="1.0" encoding="UTF-8"?>
<svg width="700pt" height="700pt" version="1.1" viewBox="0 0 700 600" xmlns="http://www.w3.org/2000/svg" xmlns:xlink="http://www.w3.org/1999/xlink">
 <g>
  <path d="m516.54 86.918c-7.668-7.6406-20.078-7.6211-27.719 0.046875-7.6406 7.668-7.6211 20.078 0.046875 27.719 36.473 36.344 61.336 96.211 61.336 165.27 0 69.113-24.902 129.02-61.422 165.36-7.6758 7.6367-7.707 20.047-0.070313 27.719 7.6328 7.6758 20.043 7.707 27.719 0.070312 45.004-44.777 72.973-115.25 72.973-193.14 0-77.832-27.922-148.25-72.863-193.03zm-82.922 49.602c8.1094-7.1719 20.496-6.4141 27.668 1.6953 30.949 34.988 49.719 85.988 49.719 141.79 0 55.797-18.762 106.79-49.699 141.78-7.1719 8.1094-19.559 8.8672-27.668 1.6992-8.1094-7.1719-8.8711-19.559-1.6992-27.668 23.859-26.98 39.867-68.391 39.867-115.81 0-47.426-16.016-88.844-39.879-115.82-7.1758-8.1094-6.4141-20.496 1.6914-27.668zm-54.555 54.84c8.75-6.375 21.008-4.4531 27.387 4.2969 16.504 22.648 26.156 52.348 26.156 84.344 0 31.992-9.6523 61.695-26.16 84.344-6.3789 8.75-18.637 10.672-27.387 4.2969-8.7461-6.3789-10.668-18.637-4.293-27.387 11.285-15.477 18.641-36.969 18.641-61.254 0-24.289-7.3555-45.777-18.637-61.254-6.375-8.75-4.4531-21.008 4.293-27.387zm-268.46 27.039c0-12.371 10.027-22.398 22.398-22.398h82.602l82.605-66.086c14.668-11.734 36.395-1.2891 36.395 17.492v265.19c0 18.781-21.727 29.227-36.395 17.492l-82.605-66.086h-82.602c-12.371 0-22.398-10.027-22.398-22.398z" fill-rule="evenodd"/>
 </g>
</svg>
