<?xml version="1.0" encoding="UTF-8"?>
<svg width="700pt" height="700pt" version="1.1" viewBox="0 0 700 600" xmlns="http://www.w3.org/2000/svg" xmlns:xlink="http://www.w3.org/1999/xlink">
 <g>
  <path d="m539.28 28c-1.6797 0-3.9219 0-5.6016 0.55859h-0.55859-1.1211l-250.88 62.723c-14.559 2.8008-25.762 15.68-25.762 30.801v296.24c-13.441-7.8398-29.68-12.879-47.039-12.879-43.68 0-78.961 28-78.961 62.719 0 35.84 35.281 63.84 78.961 63.84 43.68 0 78.961-28 78.961-63.281v-250.88l252-62.719v201.04c-13.441-7.8398-29.68-12.879-47.039-12.879-43.68 0-78.961 28-78.961 62.719s35.281 62.719 78.961 62.719c43.68 0 78.961-28 78.961-62.719l-0.003906-346.64c-0.55859-17.359-14.559-31.359-31.918-31.359z" fill-rule="evenodd"/>
 </g>
</svg>
