<?xml version="1.0" encoding="UTF-8"?>
<svg width="700pt" height="700pt" version="1.1" viewBox="0 0 700 600" xmlns="http://www.w3.org/2000/svg" xmlns:xlink="http://www.w3.org/1999/xlink">
 <g>
  <path d="m372.39 104.46c-3.2422-1.5742-6.7305-2.3477-10.199-2.3477-5.1445 0-10.25 1.6992-14.449 5.0039l-112.59 88.598-104.49-0.003906c-12.902 0-23.359 10.457-23.359 23.359v120.45c0 12.902 10.457 23.359 23.359 23.359h102.78l114.29 89.949c4.1992 3.3047 9.3047 5.0039 14.449 5.0039 3.4688 0 6.957-0.77344 10.199-2.3477 8.0469-3.9062 13.156-12.066 13.156-21.012l0.003907-309c0-8.9453-5.1094-17.105-13.156-21.012z"/>
  <path d="m438.21 201.42c-3.6484-5.2344-9.6406-8.3555-16.023-8.3555-4.0039 0-7.8633 1.2148-11.152 3.5078-4.2773 2.9805-7.1367 7.4531-8.0547 12.586-0.91406 5.1328 0.22266 10.316 3.2031 14.594 11.98 17.18 18.312 36.879 18.312 56.965 0 19.73-6.1602 39.152-17.816 56.172-6.082 8.8789-3.8047 21.055 5.0742 27.141 3.2617 2.2344 7.0742 3.4141 11.02 3.4141 6.4492 0 12.477-3.1758 16.117-8.4922 16.125-23.543 24.648-50.594 24.648-78.234 0-28.109-8.7578-55.531-25.328-79.297z"/>
  <path d="m486.14 155.84c-3.7227-4.5703-9.2422-7.1914-15.141-7.1914-4.4727 0-8.8477 1.5586-12.32 4.3867-4.043 3.293-6.5625 7.9648-7.0938 13.152s0.99219 10.27 4.2852 14.312c23.82 29.242 36.414 63.895 36.414 100.21 0 35.957-12.383 70.328-35.812 99.402-6.7539 8.3828-5.4297 20.695 2.9531 27.449 3.457 2.7852 7.8047 4.3203 12.242 4.3203 5.9414 0 11.484-2.6523 15.207-7.2734 29.082-36.09 44.457-78.934 44.457-123.9-0.007813-45.402-15.633-88.582-45.191-124.87z"/>
  <path d="m530.95 114.14c-3.707-4.2305-9.0625-6.6602-14.691-6.6602-4.7305 0-9.293 1.7148-12.855 4.8359-8.0977 7.0898-8.9141 19.449-1.8242 27.547 35.48 40.516 54.234 89.227 54.234 140.86 0 51.27-18.531 99.703-53.586 140.07-7.0547 8.125-6.1836 20.48 1.9414 27.543 3.5508 3.082 8.0938 4.7812 12.793 4.7812 5.6602 0 11.031-2.4492 14.746-6.7227 41.312-47.574 63.148-104.86 63.148-165.67 0-61.242-22.098-118.84-63.906-166.59z"/>
 </g>
</svg>
