<?xml version="1.0" encoding="UTF-8"?>
<svg width="700pt" height="700pt" version="1.1" viewBox="0 0 700 600" xmlns="http://www.w3.org/2000/svg" xmlns:xlink="http://www.w3.org/1999/xlink">
 <g>
  <path d="m339.23 102.31c-7.4453 0.027344-14.648 2.6484-20.367 7.418l-0.097656-0.12109-109.43 89.543h-107.11v0.089843c-8.5508 0.023438-16.746 3.4336-22.785 9.4883-6.043 6.0547-9.4336 14.258-9.4375 22.809v107.69c0 8.5703 3.4023 16.785 9.4648 22.848 6.0586 6.0586 14.277 9.4609 22.844 9.4609h107.95l109.96 79.977v-0.078125c6.4375 4.7344 14.406 6.9062 22.355 6.0938s15.312-4.5547 20.656-10.496 8.2852-13.66 8.2539-21.648v-290.77c0-8.5586-3.3984-16.77-9.4492-22.828-6.0469-6.0586-14.254-9.4688-22.816-9.4805zm239.53 183.07 41.77-41.77c6.4453-5.9688 10.18-14.305 10.344-23.09 0.16797-8.7812-3.25-17.254-9.4648-23.461-6.2148-6.2109-14.688-9.6211-23.469-9.4492-8.7852 0.17188-17.117 3.9102-23.086 10.359l-41.77 41.77-41.781-41.77c-8.1602-8.1602-20.055-11.348-31.203-8.3594-11.148 2.9844-19.855 11.691-22.844 22.84-2.9883 11.148 0.19922 23.043 8.3633 31.207l41.758 41.77-41.77 41.77c-6.125 6.0469-9.582 14.285-9.6094 22.891-0.027344 8.6055 3.3828 16.863 9.4648 22.949 6.0859 6.082 14.348 9.4883 22.953 9.4609 8.6055-0.03125 16.844-3.4922 22.887-9.6133l41.77-41.758 41.77 41.77 0.003906-0.003906c6.043 6.125 14.285 9.582 22.887 9.6094 8.6055 0.027344 16.867-3.3789 22.949-9.4648 6.0859-6.0859 9.4922-14.348 9.4609-22.953-0.027344-8.6055-3.4883-16.844-9.6133-22.887z"/>
 </g>
</svg>
